<?xml version="1.0" encoding="utf-8"?>
<!-- Generator: Adobe Illustrator 22.0.1, SVG Export Plug-In . SVG Version: 6.00 Build 0)  -->
<svg version="1.1" id="Layer_1" xmlns="http://www.w3.org/2000/svg" xmlns:xlink="http://www.w3.org/1999/xlink" x="0px" y="0px"
	 viewBox="0 0 1920 1080" style="enable-background:new 0 0 1920 1080;" xml:space="preserve">
<style type="text/css">
	.st0{fill:none;}
	.st1{fill:#FFFFFF;}
	.st2{fill:url(#SVGID_1_);}
	.st3{fill:url(#SVGID_2_);}
	.st4{fill:none;stroke:#FFFFFF;stroke-width:24;stroke-linecap:round;stroke-linejoin:round;stroke-miterlimit:10;}
	.st5{fill:url(#SVGID_3_);}
	.st6{fill:#AD5FFF;}
</style>
<rect x="-0.5" y="-0.5" width="1920" height="1080"/>
<g>
	<rect x="714.6" y="601.9" class="st0" width="500.9" height="55.7"/>
	<path class="st1" d="M772.5,601.9c2.5,0,4.5,0.9,6.2,2.6c1.7,1.8,2.5,3.9,2.5,6.3c-0.1,2.4-1,4.4-2.7,6c-1.7,1.6-3.8,2.4-6.2,2.4
		h-7.5v12.8c0,0.2-0.1,0.3-0.3,0.3h-3.3c-0.2,0-0.3-0.1-0.3-0.3v-30c0-0.2,0.1-0.3,0.3-0.3H772.5z M772.5,615.4
		c1.3,0,2.5-0.5,3.4-1.4c0.9-0.9,1.4-2.1,1.4-3.4s-0.5-2.4-1.4-3.4c-0.9-0.9-2.1-1.4-3.4-1.4h-7.6v9.6H772.5z"/>
	<path class="st1" d="M830.4,601.9c0.2,0,0.3,0.1,0.3,0.3v29.9c0,0.2-0.1,0.3-0.3,0.3H827c-0.2,0-0.3-0.1-0.3-0.3v-13.1h-14.2v13
		c0,0.2-0.1,0.3-0.3,0.3h-3.3c-0.2,0-0.3-0.1-0.3-0.3v-29.9c0-0.2,0.1-0.3,0.3-0.3h3.3c0.2,0,0.3,0.1,0.3,0.3v13h14.2v-13
		c0-0.2,0.1-0.3,0.3-0.3H830.4z"/>
	<path class="st1" d="M879.3,602c0.1,0,0.2,0,0.2,0.1c0.1,0.1,0.1,0.2,0,0.3l-9.1,14.4v15.4c0,0.2-0.1,0.3-0.3,0.3H867
		c-0.2,0-0.3-0.1-0.3-0.3v-15.4l-9-14.4c-0.1-0.1-0.1-0.2,0-0.3c0-0.1,0.1-0.1,0.2-0.1h3.7c0.1,0,0.2,0,0.2,0.1l6.7,10.7l6.7-10.7
		c0.1-0.1,0.1-0.1,0.2-0.1H879.3z"/>
	<path class="st1" d="M923.7,601.9c0.2,0,0.3,0.1,0.3,0.3v3.3c0,0.2-0.1,0.3-0.3,0.3h-8v26.3c0,0.2-0.1,0.3-0.3,0.3h-3.3
		c-0.2,0-0.3-0.1-0.3-0.3v-26.3h-8c-0.2,0-0.3-0.1-0.3-0.3v-3.3c0-0.2,0.1-0.3,0.3-0.3H923.7z"/>
	<path class="st1" d="M970.4,601.9c0.2,0,0.3,0.1,0.3,0.3v3.3c0,0.2-0.1,0.3-0.3,0.3h-16.2v9.4h11.7c0.2,0,0.3,0.1,0.3,0.3v3.3
		c0,0.2-0.1,0.3-0.3,0.3h-11.7v9.4h16.2c0.2,0,0.3,0.1,0.3,0.3v3.3c0,0.2-0.1,0.3-0.3,0.3h-19.8c-0.2,0-0.3-0.1-0.3-0.3v-29.9
		c0-0.2,0.1-0.3,0.3-0.3H970.4z"/>
	<path class="st1" d="M1019.3,601.9c0.2,0,0.3,0.1,0.3,0.3v30c0,0.2-0.1,0.3-0.3,0.3h-1.5c-0.1,0-0.2,0-0.2-0.1l-16.2-21.7v21.5
		c0,0.2-0.1,0.3-0.3,0.3h-3.2c-0.2,0-0.3-0.1-0.3-0.3v-30c0-0.2,0.1-0.3,0.3-0.3h1.4c0.1,0,0.2,0,0.2,0.1l16.4,21.8v-21.7
		c0-0.2,0.1-0.3,0.3-0.3H1019.3z"/>
	<path class="st1" d="M1058.1,614.8c0.3,0.1,0.5,0.2,0.6,0.3l0.6,0.3c0.5,0.2,1,0.5,1.4,0.7c1.1,0.6,2,1.2,2.7,1.8
		c2,1.7,3,3.7,3,6.1c0,2.6-0.9,4.7-2.7,6.2c-1.8,1.5-4.2,2.3-7.2,2.3c-2.2,0-4.4-0.5-6.3-1.5c-0.7-0.4-1.3-0.8-2-1.2
		c-0.2-0.2-0.4-0.3-0.7-0.5c-0.2-0.1-0.3-0.3-0.4-0.4c-0.1-0.1-0.1-0.3,0-0.4l2.4-2.3c0.1-0.1,0.3-0.1,0.4,0
		c0.1,0.1,0.2,0.2,0.3,0.3c0.1,0.1,0.3,0.2,0.5,0.3c0.4,0.3,0.9,0.6,1.4,0.8c1.4,0.7,2.8,1,4.4,1c4,0,6-1.5,6-4.6
		c0-1.2-0.5-2.2-1.5-3.1c-0.9-0.8-2.3-1.6-4.5-2.5l-0.1,0l-1-0.5l-0.5-0.2l-0.6-0.3c-0.5-0.2-0.9-0.4-1.2-0.6c-1-0.5-1.8-1-2.4-1.6
		c-1.8-1.5-2.7-3.4-2.7-5.6c0-2.4,0.8-4.2,2.4-5.6c1.6-1.4,3.8-2.1,6.6-2.1c2,0,3.9,0.4,5.7,1.3c0.6,0.3,1.2,0.7,1.8,1.1
		c0.2,0.1,0.4,0.3,0.6,0.4c0.1,0.1,0.3,0.2,0.4,0.4c0.2,0.1,0.2,0.3,0,0.4l-1.2,1.1l-1.2,1.2c-0.1,0.1-0.3,0.1-0.4,0
		c-0.1-0.1-0.2-0.2-0.3-0.3c-0.1-0.1-0.3-0.2-0.4-0.3c-0.4-0.3-0.8-0.5-1.2-0.7c-1.2-0.6-2.4-0.8-3.7-0.8c-3.4,0-5.1,1.3-5.1,3.8
		c0,1,0.4,1.9,1.3,2.6c0.7,0.6,2,1.3,3.9,2.1l0.1,0L1058.1,614.8z"/>
	<path class="st1" d="M1107.2,601.9c4.2,0,7.8,1.5,10.8,4.5s4.5,6.6,4.5,10.8c0,4.2-1.5,7.8-4.5,10.8s-6.6,4.5-10.8,4.5
		c-4.2,0-7.8-1.5-10.8-4.5s-4.5-6.6-4.5-10.8c0-4.2,1.5-7.8,4.5-10.8S1103,601.9,1107.2,601.9z M1107.2,628.5c3.1,0,5.8-1.1,8-3.3
		c2.2-2.2,3.3-4.9,3.3-8c0-3.1-1.1-5.8-3.3-8c-2.2-2.2-4.9-3.3-8-3.3c-3.1,0-5.8,1.1-8,3.3c-2.2,2.2-3.3,4.9-3.3,8
		c0,3.1,1.1,5.8,3.3,8S1104,628.5,1107.2,628.5z"/>
	<path class="st1" d="M1171,632c0,0.1,0,0.2,0,0.3c0,0.1-0.1,0.1-0.2,0.1h-3.8c-0.1,0-0.2,0-0.2-0.1l-7.2-13.1l0,0h-5.3v12.9
		c0,0.2-0.1,0.3-0.3,0.3h-3.3c-0.2,0-0.3-0.1-0.3-0.3v-29.9c0-0.2,0.1-0.3,0.3-0.3h11.2c2.4,0,4.5,0.9,6.2,2.6
		c1.7,1.7,2.5,3.8,2.4,6.3c-0.1,2-0.7,3.7-2,5.2c-1.3,1.5-2.8,2.4-4.7,2.9L1171,632z M1162,615.3c1.3,0,2.4-0.5,3.4-1.4
		c0.9-0.9,1.4-2.1,1.4-3.4c0-1.3-0.5-2.4-1.4-3.4c-0.9-0.9-2.1-1.4-3.4-1.4h-7.6v9.5H1162z"/>
</g>
<g>
	
		<linearGradient id="SVGID_1_" gradientUnits="userSpaceOnUse" x1="1147.3665" y1="828.4852" x2="1147.3665" y2="1000.2903" gradientTransform="matrix(-0.5264 -0.7612 1.5405 -1.0653 140.9367 2296.2136)">
		<stop  offset="3.081102e-07" style="stop-color:#0071BC;stop-opacity:0"/>
		<stop  offset="1" style="stop-color:#0071BC;stop-opacity:0.8"/>
	</linearGradient>
	<path class="st2" d="M1008.2,351c22.8-17.3,53.9-14.5,68.5,4.5c15.5,20.1,8.2,52.8-17.5,69.1c-70.9,49-141.8,98-212.6,147
		c-19.4-22.5-38.8-45-58.2-67.5C861.6,453.1,934.9,402,1008.2,351z"/>
	
		<linearGradient id="SVGID_2_" gradientUnits="userSpaceOnUse" x1="1138.6053" y1="832.4058" x2="1138.6053" y2="990.538" gradientTransform="matrix(-0.5688 -0.8225 1.0763 -0.7443 704.5049 1997.1705)">
		<stop  offset="3.081102e-07" style="stop-color:#662D91;stop-opacity:0"/>
		<stop  offset="1" style="stop-color:#662D91"/>
	</linearGradient>
	<path class="st3" d="M1046.1,307.7c29.7-11,59.4-5.9,74.6,12.7c16.9,20.6,12.9,53.8-10.1,80.6c-58,40.1-67.5,46.7-125.5,86.8
		l-64.5-93.2L1046.1,307.7z"/>
	<path class="st4" d="M981.1,499.6c-9.4,6.5-20,13.8-32.6,22.5"/>
	<path class="st4" d="M889.2,411l146.9-101.6c3.7-2.7,9.4-6.3,17-8.6c22-6.7,54-1.2,70.9,23.6c19.7,28.9,5.6,64.5-9.8,81
		c-1.5,1.6-4.8,4.1-11.4,9.3c-24.2,18.9-38.7,27.1-68.3,47.1c-5.2,3.6-13.3,9.1-23.3,16.1"/>
	
		<linearGradient id="SVGID_3_" gradientUnits="userSpaceOnUse" x1="1150.5774" y1="871.7376" x2="1150.5774" y2="986.1946" gradientTransform="matrix(-0.5264 -0.7612 2.0129 -1.3919 -332.2542 2623.437)">
		<stop  offset="3.081102e-07" style="stop-color:#00A99D;stop-opacity:0"/>
		<stop  offset="1" style="stop-color:#00A99D;stop-opacity:0.8"/>
	</linearGradient>
	<path class="st5" d="M991.6,377c20-14.8,44.7-15.7,54.6-3.3c10.5,13.3,1.5,37.9-20.7,52.3c-61.7,42.7-123.4,85.3-185.1,128
		c-13.5-14.6-26.9-29.3-40.4-43.9C864,465.7,927.8,421.3,991.6,377z"/>
	<line class="st4" x1="1039.8" y1="382" x2="879.9" y2="494.7"/>
</g>
<g>
	<rect x="491.6" y="677.7" class="st0" width="936.9" height="104.1"/>
	<path class="st6" d="M697.7,686.1c0.1,0,0.2,0.1,0.2,0.2v1.8c0,0.1-0.1,0.2-0.2,0.2h-8.9v5.2h6.5c0.1,0,0.2,0.1,0.2,0.2v1.8
		c0,0.1-0.1,0.2-0.2,0.2h-6.5v5.2h8.9c0.1,0,0.2,0.1,0.2,0.2v1.8c0,0.1-0.1,0.2-0.2,0.2h-10.9c-0.1,0-0.2-0.1-0.2-0.2v-16.5
		c0-0.1,0.1-0.2,0.2-0.2H697.7z"/>
	<path class="st6" d="M724.6,701.3c0.1,0.1,0,0.2,0,0.2c-1.4,0.9-2.9,1.4-4.6,1.4c-1.2,0-2.3-0.2-3.4-0.7c-1-0.5-1.9-1.1-2.7-1.9
		c-1.7-1.8-2.4-3.8-2.3-6.2c0.1-2.1,0.9-3.9,2.4-5.4c1.5-1.5,3.2-2.3,5.3-2.5c1.9-0.1,3.7,0.3,5.2,1.3c0.1,0.1,0.1,0.1,0,0.2l-1,1.5
		c-0.1,0.1-0.1,0.1-0.2,0c-1.2-0.8-2.5-1.1-3.9-1c-1.6,0.1-2.9,0.8-4.1,2c-1.1,1.2-1.7,2.6-1.7,4.2c0,1.7,0.6,3.2,1.8,4.5
		c1.2,1.2,2.7,1.9,4.4,1.9c1.2,0,2.4-0.3,3.4-1c0.1-0.1,0.2,0,0.2,0L724.6,701.3z"/>
	<path class="st6" d="M750.9,701.3c0.1,0.1,0,0.2,0,0.2c-1.4,0.9-2.9,1.4-4.6,1.4c-1.2,0-2.3-0.2-3.4-0.7c-1-0.5-1.9-1.1-2.7-1.9
		c-1.7-1.8-2.4-3.8-2.3-6.2c0.1-2.1,0.9-3.9,2.4-5.4c1.5-1.5,3.2-2.3,5.3-2.5c1.9-0.1,3.7,0.3,5.2,1.3c0.1,0.1,0.1,0.1,0,0.2l-1,1.5
		c-0.1,0.1-0.1,0.1-0.2,0c-1.2-0.8-2.5-1.1-3.9-1c-1.6,0.1-2.9,0.8-4.1,2c-1.1,1.2-1.7,2.6-1.7,4.2c0,1.7,0.6,3.2,1.8,4.5
		c1.2,1.2,2.7,1.9,4.4,1.9c1.2,0,2.4-0.3,3.4-1c0.1-0.1,0.2,0,0.2,0L750.9,701.3z"/>
	<path class="st6" d="M776.4,686.1c0.1,0,0.2,0.1,0.2,0.2v1.8c0,0.1-0.1,0.2-0.2,0.2h-8.9v5.2h6.5c0.1,0,0.2,0.1,0.2,0.2v1.8
		c0,0.1-0.1,0.2-0.2,0.2h-6.5v5.2h8.9c0.1,0,0.2,0.1,0.2,0.2v1.8c0,0.1-0.1,0.2-0.2,0.2h-10.9c-0.1,0-0.2-0.1-0.2-0.2v-16.5
		c0-0.1,0.1-0.2,0.2-0.2H776.4z"/>
	<path class="st6" d="M803.3,686.1c0.1,0,0.2,0.1,0.2,0.2v16.5c0,0.1-0.1,0.2-0.2,0.2h-0.8c0,0-0.1,0-0.1-0.1l-8.9-11.9v11.8
		c0,0.1-0.1,0.2-0.2,0.2h-1.7c-0.1,0-0.2-0.1-0.2-0.2v-16.5c0-0.1,0.1-0.2,0.2-0.2h0.8c0,0,0.1,0,0.1,0.1l9,12v-11.9
		c0-0.1,0.1-0.2,0.2-0.2H803.3z"/>
	<path class="st6" d="M829.4,686.1c0.1,0,0.2,0.1,0.2,0.2v1.8c0,0.1-0.1,0.2-0.2,0.2H825v14.5c0,0.1-0.1,0.2-0.2,0.2H823
		c-0.1,0-0.2-0.1-0.2-0.2v-14.5h-4.4c-0.1,0-0.2-0.1-0.2-0.2v-1.8c0-0.1,0.1-0.2,0.2-0.2H829.4z"/>
	<path class="st6" d="M855.4,702.7c0,0,0,0.1,0,0.2c0,0-0.1,0.1-0.1,0.1h-2.1c-0.1,0-0.1,0-0.1-0.1l-3.9-7.2l0,0h-2.9v7.1
		c0,0.1-0.1,0.2-0.2,0.2h-1.8c-0.1,0-0.2-0.1-0.2-0.2v-16.5c0-0.1,0.1-0.2,0.2-0.2h6.2c1.3,0,2.5,0.5,3.4,1.4s1.4,2.1,1.3,3.5
		c0,1.1-0.4,2-1.1,2.9c-0.7,0.8-1.6,1.3-2.6,1.6L855.4,702.7z M850.4,693.5c0.7,0,1.3-0.3,1.9-0.8s0.8-1.1,0.8-1.9
		c0-0.7-0.3-1.3-0.8-1.9c-0.5-0.5-1.1-0.8-1.9-0.8h-4.2v5.3H850.4z"/>
	<path class="st6" d="M872.4,686.1c0.1,0,0.2,0.1,0.2,0.2v16.5c0,0.1-0.1,0.2-0.2,0.2h-1.8c-0.1,0-0.2-0.1-0.2-0.2v-16.5
		c0-0.1,0.1-0.2,0.2-0.2H872.4z"/>
	<path class="st6" d="M900.6,701.3c0.1,0.1,0,0.2,0,0.2c-1.4,0.9-2.9,1.4-4.6,1.4c-1.2,0-2.3-0.2-3.4-0.7c-1-0.5-1.9-1.1-2.7-1.9
		c-1.7-1.8-2.4-3.8-2.3-6.2c0.1-2.1,0.9-3.9,2.4-5.4c1.5-1.5,3.2-2.3,5.3-2.5c1.9-0.1,3.7,0.3,5.2,1.3c0.1,0.1,0.1,0.1,0,0.2l-1,1.5
		c-0.1,0.1-0.1,0.1-0.2,0c-1.2-0.8-2.5-1.1-3.9-1c-1.6,0.1-2.9,0.8-4.1,2c-1.1,1.2-1.7,2.6-1.7,4.2c0,1.7,0.6,3.2,1.8,4.5
		c1.2,1.2,2.7,1.9,4.4,1.9c1.2,0,2.4-0.3,3.4-1c0.1-0.1,0.2,0,0.2,0L900.6,701.3z"/>
	<path class="st6" d="M942.8,686.1c0.1,0,0.2,0.1,0.2,0.2v1.8c0,0.1-0.1,0.2-0.2,0.2h-4.4v14.5c0,0.1-0.1,0.2-0.2,0.2h-1.8
		c-0.1,0-0.2-0.1-0.2-0.2v-14.5h-4.4c-0.1,0-0.2-0.1-0.2-0.2v-1.8c0-0.1,0.1-0.2,0.2-0.2H942.8z"/>
	<path class="st6" d="M968.5,686.1c0.1,0,0.2,0.1,0.2,0.2v1.8c0,0.1-0.1,0.2-0.2,0.2h-8.9v5.2h6.5c0.1,0,0.2,0.1,0.2,0.2v1.8
		c0,0.1-0.1,0.2-0.2,0.2h-6.5v5.2h8.9c0.1,0,0.2,0.1,0.2,0.2v1.8c0,0.1-0.1,0.2-0.2,0.2h-10.9c-0.1,0-0.2-0.1-0.2-0.2v-16.5
		c0-0.1,0.1-0.2,0.2-0.2H968.5z"/>
	<path class="st6" d="M995.4,686.1c0.1,0,0.2,0.1,0.2,0.2v16.5c0,0.1-0.1,0.2-0.2,0.2h-0.8c0,0-0.1,0-0.1-0.1l-8.9-11.9v11.8
		c0,0.1-0.1,0.2-0.2,0.2h-1.7c-0.1,0-0.2-0.1-0.2-0.2v-16.5c0-0.1,0.1-0.2,0.2-0.2h0.8c0,0,0.1,0,0.1,0.1l9,12v-11.9
		c0-0.1,0.1-0.2,0.2-0.2H995.4z"/>
	<path class="st6" d="M1016.7,693.2c0.1,0.1,0.3,0.1,0.3,0.2l0.4,0.2c0.3,0.1,0.5,0.3,0.8,0.4c0.6,0.3,1.1,0.6,1.5,1
		c1.1,0.9,1.6,2,1.6,3.4c0,1.4-0.5,2.6-1.5,3.4c-1,0.8-2.3,1.3-4,1.3c-1.2,0-2.4-0.3-3.5-0.8c-0.4-0.2-0.7-0.4-1.1-0.7
		c-0.1-0.1-0.2-0.2-0.4-0.3c-0.1-0.1-0.2-0.1-0.2-0.2c-0.1-0.1-0.1-0.1,0-0.2l1.3-1.3c0.1-0.1,0.1-0.1,0.2,0c0.1,0,0.1,0.1,0.2,0.2
		c0.1,0.1,0.2,0.1,0.3,0.2c0.2,0.2,0.5,0.3,0.8,0.4c0.8,0.4,1.6,0.5,2.4,0.5c2.2,0,3.3-0.8,3.3-2.5c0-0.6-0.3-1.2-0.8-1.7
		c-0.5-0.4-1.3-0.9-2.4-1.4l0,0l-0.6-0.3l-0.3-0.1l-0.3-0.1c-0.3-0.1-0.5-0.2-0.7-0.3c-0.5-0.3-1-0.6-1.3-0.9
		c-1-0.8-1.5-1.9-1.5-3.1c0-1.3,0.4-2.3,1.3-3.1c0.9-0.8,2.1-1.1,3.6-1.1c1.1,0,2.1,0.2,3.1,0.7c0.3,0.2,0.7,0.4,1,0.6
		c0.1,0.1,0.2,0.2,0.3,0.2c0.1,0.1,0.1,0.1,0.2,0.2c0.1,0.1,0.1,0.1,0,0.2l-0.7,0.6l-0.7,0.6c-0.1,0.1-0.1,0.1-0.2,0
		c0,0-0.1-0.1-0.2-0.1c-0.1-0.1-0.1-0.1-0.2-0.2c-0.2-0.1-0.4-0.3-0.7-0.4c-0.6-0.3-1.3-0.5-2.1-0.5c-1.9,0-2.8,0.7-2.8,2.1
		c0,0.5,0.2,1,0.7,1.4c0.4,0.3,1.1,0.7,2.1,1.2l0,0L1016.7,693.2z"/>
	<path class="st6" d="M1043.8,686.1c2.3,0,4.3,0.8,5.9,2.5s2.5,3.6,2.5,5.9s-0.8,4.3-2.5,5.9s-3.6,2.5-5.9,2.5s-4.3-0.8-5.9-2.5
		s-2.5-3.6-2.5-5.9s0.8-4.3,2.5-5.9S1041.4,686.1,1043.8,686.1z M1043.8,700.7c1.7,0,3.2-0.6,4.4-1.8c1.2-1.2,1.8-2.7,1.8-4.4
		c0-1.7-0.6-3.2-1.8-4.4c-1.2-1.2-2.7-1.8-4.4-1.8c-1.7,0-3.2,0.6-4.4,1.8c-1.2,1.2-1.8,2.7-1.8,4.4c0,1.7,0.6,3.2,1.8,4.4
		S1042,700.7,1043.8,700.7z"/>
	<path class="st6" d="M1078.9,702.7c0,0,0,0.1,0,0.2c0,0-0.1,0.1-0.1,0.1h-2.1c-0.1,0-0.1,0-0.1-0.1l-3.9-7.2l0,0h-2.9v7.1
		c0,0.1-0.1,0.2-0.2,0.2h-1.8c-0.1,0-0.2-0.1-0.2-0.2v-16.5c0-0.1,0.1-0.2,0.2-0.2h6.2c1.3,0,2.5,0.5,3.4,1.4s1.4,2.1,1.3,3.5
		c0,1.1-0.4,2-1.1,2.9c-0.7,0.8-1.6,1.3-2.6,1.6L1078.9,702.7z M1073.9,693.5c0.7,0,1.3-0.3,1.9-0.8s0.8-1.1,0.8-1.9
		c0-0.7-0.3-1.3-0.8-1.9c-0.5-0.5-1.1-0.8-1.9-0.8h-4.2v5.3H1073.9z"/>
	<path class="st6" d="M1121.3,700.7c0.1,0,0.2,0.1,0.2,0.2v1.8c0,0.1-0.1,0.2-0.2,0.2h-9.3c-0.1,0-0.2-0.1-0.2-0.2v-16.5
		c0-0.1,0.1-0.2,0.2-0.2h1.8c0.1,0,0.2,0.1,0.2,0.2v14.5H1121.3z"/>
	<path class="st6" d="M1142.9,686.1c0.1,0,0.1,0,0.1,0.1l6.9,16.5c0,0,0,0.1,0,0.1s-0.1,0.1-0.1,0.1h-1.9c-0.1,0-0.1,0-0.1-0.1
		l-2.7-6.5h-5.9l-2.7,6.5c0,0.1-0.1,0.1-0.1,0.1h-1.9c-0.1,0-0.1,0-0.1-0.1s0-0.1,0-0.1l6.9-16.5c0-0.1,0.1-0.1,0.1-0.1H1142.9z
		 M1144.2,694.3l-2.1-5.1l-2.1,5.1H1144.2z"/>
	<path class="st6" d="M1173.6,693.7c0.7,0.5,1.3,1.1,1.7,1.8c0.4,0.8,0.6,1.6,0.6,2.5c0,1.3-0.6,2.5-1.5,3.4c-1,0.9-2.2,1.4-3.5,1.4
		h-6.5c-0.1,0-0.2-0.1-0.2-0.2v-16.5c0-0.1,0.1-0.2,0.2-0.2h6c1.2,0,2.3,0.4,3.2,1.3c0.9,0.9,1.3,1.9,1.3,3.1
		C1175,691.8,1174.5,692.8,1173.6,693.7z M1166.4,693h4.1c0.6,0,1.2-0.2,1.7-0.7c0.5-0.5,0.7-1,0.7-1.7c0-0.6-0.2-1.2-0.7-1.7
		c-0.5-0.5-1-0.7-1.7-0.7h-4.1V693z M1171,700.7c0.8,0,1.4-0.3,2-0.8c0.6-0.5,0.8-1.2,0.8-2c0-0.8-0.3-1.4-0.8-2
		c-0.5-0.5-1.2-0.8-2-0.8h-4.6v5.6H1171z"/>
	<path class="st6" d="M1196.6,693.2c0.1,0.1,0.3,0.1,0.3,0.2l0.4,0.2c0.3,0.1,0.5,0.3,0.8,0.4c0.6,0.3,1.1,0.6,1.5,1
		c1.1,0.9,1.6,2,1.6,3.4c0,1.4-0.5,2.6-1.5,3.4c-1,0.8-2.3,1.3-4,1.3c-1.2,0-2.4-0.3-3.5-0.8c-0.4-0.2-0.7-0.4-1.1-0.7
		c-0.1-0.1-0.2-0.2-0.4-0.3c-0.1-0.1-0.2-0.1-0.2-0.2c-0.1-0.1-0.1-0.1,0-0.2l1.3-1.3c0.1-0.1,0.1-0.1,0.2,0c0.1,0,0.1,0.1,0.2,0.2
		c0.1,0.1,0.2,0.1,0.3,0.2c0.2,0.2,0.5,0.3,0.8,0.4c0.8,0.4,1.6,0.5,2.4,0.5c2.2,0,3.3-0.8,3.3-2.5c0-0.6-0.3-1.2-0.8-1.7
		c-0.5-0.4-1.3-0.9-2.4-1.4l0,0l-0.6-0.3l-0.3-0.1l-0.3-0.1c-0.3-0.1-0.5-0.2-0.7-0.3c-0.5-0.3-1-0.6-1.3-0.9
		c-1-0.8-1.5-1.9-1.5-3.1c0-1.3,0.4-2.3,1.3-3.1c0.9-0.8,2.1-1.1,3.6-1.1c1.1,0,2.1,0.2,3.1,0.7c0.3,0.2,0.7,0.4,1,0.6
		c0.1,0.1,0.2,0.2,0.3,0.2c0.1,0.1,0.1,0.1,0.2,0.2c0.1,0.1,0.1,0.1,0,0.2l-0.7,0.6l-0.7,0.6c-0.1,0.1-0.1,0.1-0.2,0
		c0,0-0.1-0.1-0.2-0.1c-0.1-0.1-0.1-0.1-0.2-0.2c-0.2-0.1-0.4-0.3-0.7-0.4c-0.6-0.3-1.3-0.5-2.1-0.5c-1.9,0-2.8,0.7-2.8,2.1
		c0,0.5,0.2,1,0.7,1.4c0.4,0.3,1.1,0.7,2.1,1.2l0,0L1196.6,693.2z"/>
	<path class="st6" d="M1218.7,696.2c-1.6-1.6-2.4-3.6-2.4-5.9s0.8-4.3,2.4-5.9c1.6-1.6,3.6-2.5,5.9-2.5s4.3,0.8,5.9,2.5
		s2.5,3.6,2.5,5.9s-0.8,4.3-2.5,5.9s-3.6,2.5-5.9,2.5S1220.4,697.8,1218.7,696.2z M1219.9,685.5c-1.3,1.3-2,2.9-2,4.7s0.7,3.4,2,4.7
		s2.9,2,4.7,2s3.4-0.7,4.7-2s2-2.9,2-4.7s-0.7-3.4-2-4.7s-2.9-2-4.7-2S1221.2,684.2,1219.9,685.5z M1221.8,693.2
		c-0.8-0.9-1.2-1.9-1.2-3.1c0-1.1,0.4-2.1,1.2-2.8s1.8-1.2,2.9-1.2c0.8,0,1.5,0.2,2.2,0.6c0.1,0.1,0.2,0.2,0.1,0.3l-0.7,1
		c-0.1,0.1-0.2,0.1-0.3,0.1c-0.5-0.3-1.1-0.4-1.7-0.3c-0.6,0.1-1,0.4-1.4,0.8s-0.6,0.9-0.7,1.5c-0.1,0.8,0.1,1.4,0.7,2
		s1.1,0.8,1.9,0.8c0.4,0,0.9-0.1,1.2-0.3c0.1-0.1,0.2,0,0.3,0.1l0.7,1c0.1,0.1,0.1,0.3-0.1,0.3c-0.7,0.4-1.4,0.6-2.1,0.6
		C1223.7,694.5,1222.7,694,1221.8,693.2z"/>
</g>
<g>
</g>
<g>
</g>
<g>
</g>
<g>
</g>
<g>
</g>
<g>
</g>
<g>
</g>
<g>
</g>
<g>
</g>
<g>
</g>
<g>
</g>
</svg>
