<?xml version="1.0" encoding="utf-8"?>
<!-- Generator: Adobe Illustrator 15.0.2, SVG Export Plug-In  -->
<!DOCTYPE svg PUBLIC "-//W3C//DTD SVG 1.1//EN" "http://www.w3.org/Graphics/SVG/1.1/DTD/svg11.dtd" [
	<!ENTITY ns_flows "http://ns.adobe.com/Flows/1.0/">
]>
<svg version="1.1"
	 xmlns="http://www.w3.org/2000/svg" xmlns:xlink="http://www.w3.org/1999/xlink" xmlns:a="http://ns.adobe.com/AdobeSVGViewerExtensions/3.0/"
	 x="0px" y="0px" width="96px" height="96px" viewBox="0.031 -0.031 96 96"
	 overflow="visible" enable-background="new 0.031 -0.031 96 96" xml:space="preserve">
<defs>
</defs>
<circle fill="#6699CC" cx="48" cy="48" r="48"/>
<path fill="#6666CC" d="M39.594,63.594l0.375-1.125l2.5-0.5l2.562-0.562l0.438-0.438l0.5,0.438l0.562,0.562h1.125l0.375-0.5
	l0.438-0.5l0.5,0.375l0.5,0.5l0.5-0.25l-0.438-0.625l-0.5-0.562l2-0.438l2-0.5l1.062-0.562l0.938,0.562l0.438,0.5l0.625-1.438
	l0.438-1.5l0.438-0.5l0.625-0.625l0.375-0.375l0.562-0.562l0.5-0.438l-0.5-0.5l-0.5-0.562l0.938-0.438l1.062-0.625l0.562-0.5
	l0.375-0.938l1.188-1c0,0,0.688-1.25,0.812-1.5s0.562-1.562,0.562-1.562l0.5-0.438l0.938-0.5l1-0.438l1.125-0.562l0.875-3.375
	l-0.438-4.688l-1.062-0.938l-0.5-1.062l-0.438-1l-0.5-0.938l-1.062-1l-0.875-1.625l-0.562-1.375l-0.5-1.062l-0.5-0.938l-1.5-1.062
	l-1.125-1.062l-0.375-0.875l-0.562-0.562l-0.5-0.5l-0.5-0.625l-0.375-0.375l-0.562-0.5l-1.5-0.438l-1.5-0.562l-1.5-0.438
	l-1.562-0.562l-1-0.438l-0.938-0.562l-0.5-0.5l-0.5-0.562l-0.5-0.375l-0.5-0.562l-1.062-0.375l-1,0.312l-1,0.5l-0.938-0.438
	l-5.125-0.438l-3.875,0.5l-0.875,0.562l-1.125-0.625l-1.125-0.438l-0.938,0.438l-2.625,0.562l-3.312,0.5l-0.625,0.5l-0.5,0.5
	l-0.875,0.5l-1.062,0.438l-0.5,0.562l-3.625,0.688l7.625-7l12.312-7.438l27.125,7.25l16.188,20.188l-1.125,22.312L57.281,66.781
	L39.594,63.594z"/>
<polygon fill="#3366CC" points="56.344,62.531 58.031,60.469 58.531,59.969 60.406,60.031 61.031,60.406 61.531,60.969 
	62.031,59.469 62.594,57.969 63.031,57.594 63.656,56.906 64.031,56.031 63.031,54.906 65.094,52.969 67.031,51.906 67.656,50.906 
	68.094,49.969 67.594,48.906 67.031,49.406 66.531,49.969 66.094,49.469 65.719,48.969 65.094,47.469 66.031,45.969 66.969,46.531 
	67.531,46.969 67.969,46.594 69.219,45.906 70.031,46.531 71.031,47.031 72.031,46.469 70.969,45.844 70.031,43.719 69.531,41.969 
	69.031,39.969 68.469,37.969 68.031,36.969 67.594,36.031 67.031,35.406 66.531,34.969 66.031,34.469 65.656,33.906 65.094,33.406 
	64.719,32.969 64.031,32.406 64.469,31.969 65.031,30.906 64.531,29.906 64.094,29.406 64.594,28.969 65.031,28.469 64.219,27.969 
	63.094,27.594 63.656,26.906 64.094,26.094 62.719,24.969 61.094,24.344 60.594,23.969 60.031,22.406 59.719,20.969 59.031,20.469 
	58.219,19.906 56.969,19.406 55.969,18.906 54.969,19.281 54.594,19.969 54.031,19.344 53.594,19.031 52.969,18.344 52.219,17.906 
	51.031,17.406 50.594,16.969 50.031,16.406 49.031,15.906 47.906,15.406 47.156,14.844 45.906,15.469 45.469,15.906 44.969,15.281 
	44.781,14.969 44.094,13.906 42.719,12.844 40.969,13.344 39.406,13.969 37.969,14.469 37.594,14.969 37.031,14.406 37.406,13.844 
	38.094,12.844 43.281,7.531 68.219,19.844 79.656,40.969 76.594,53.844 70.719,62.719 63.469,64.406 "/>
<polygon fill="#6666CC" points="16.406,45.281 18.031,44.969 18.969,44.406 19.156,42.969 16.656,42.781 16.281,44.219 "/>
<polygon fill="#6666CC" points="54.969,17.531 55.469,16.844 56.094,17.531 55.656,18.031 "/>
<path fill="#336699" d="M96,48c0,26.509-21.491,48-48,48S0,74.509,0,48S21.491,0,48,0S96,21.491,96,48z M56.25,62.188L57.812,61
	l1.062-0.5l0.438-0.5l0.438,0.438L60.812,61l1-0.875l0.562-1.188l0.5-1.062l0.5-0.875l0.438-1.125l-0.562-0.938l-0.438-0.375
	L63.562,54l1.188-0.5l1.062-0.438l1-0.5l0.5-0.625L67.75,51l0.625-1l0.438-0.938l1-1.125l1-0.562l0.5-0.375l0.5-0.438l-0.438-0.625
	l-0.562-0.5l0.438-0.375l0.438-0.5l0.625-0.5l0.5-2.688L72.312,38c0,0-0.5-1.25-0.5-1.438s-0.875-1.5-0.875-1.5l-1.125-1.75
	L69.438,32l-0.75-1.688L68.312,29l-0.5-0.688L67.375,28l-0.562-2.188l-1.5-1.875L63.75,23.5L63.312,23l-0.5-1.125l-1.5-0.938
	L59.812,20l-0.5-1l-0.5-0.5l-1.062-0.562l-0.938-0.5l-0.5-0.562l-0.562-0.438l-1.812-0.5l-2.062-0.562l-1.5-0.5l-1.625-0.438
	l-1.562-0.5L45.75,13.5l-3.938-0.625l-4-0.5l-0.875-0.438l-1.188,0.938l-0.438,0.938l-0.5-0.5l-0.5-0.438l-0.562,0.5l-2.312,0.562
	l-2.625,0.5l-0.562,0.5L24.562,14.5l-6.625,3.812l-8,9.312l-2,4.875l-0.875,3.625l-1.625,4.688l-1,3.875L3.5,47.875l0.812,3
	L8.188,61.25L12,67.625l8.5,0.5l20.062-3.812L45.25,63.5l7.188-0.062L56.25,62.188z"/>
<path fill="#336666" d="M96,48c0,26.509-21.491,48-48,48S0,74.509,0,48S21.491,0,48,0S96,21.491,96,48z M85,53.25l1.125-18.938
	l-10.75-18.375h-4.75l-0.688-1.062L69.625,14L69,12.875l-0.438-0.938L68.188,11.5l-0.812-0.625l-0.312-0.312l-0.688-0.625l-1.812-1
	L63.938,8.5L63,8l-0.938-0.5l-0.5-0.562l-0.625-0.375l-0.875-0.5L59,5.375l-1.062-0.438l-1-0.438l-1.812-0.688L53.062,3.5
	l-2.25-0.562L48,2.438l-4.625-0.5l-3.438,0.625l-3,0.438l-2,0.5l-2.25,0.438l-1.75,0.625L29.75,4.938L29,5.438l-1,0.5l-1.125,0.375
	L22.812,8.75l-5.938,4.062l-3,3.062l-1.938,2L11.5,19l-0.688,0.562L10.5,20l-0.625,1l-0.5,0.938l-0.438,0.625L8.5,23l-0.562,0.938
	l-0.375,1L6.875,26l-0.938,1.5L5.5,28.875L5,29.75l-0.562,1.188l-0.5,1.312L3.5,33.938l-0.562,2L2.438,38l-0.5,11.062l0.5,5.875
	l0.5,2.688L3.438,60l0.5,1.5l0.438,1.562l0.562,1.562l0.438,1.312l0.5,0.625L6.438,67l0.5,1.625l0.375,1.438l0.625,1.062L8.5,72.062
	L8.938,72.5l0.438,0.625l0.5,0.25l0.5,0.688l0.5,0.375L12,75l0.875,0.562l0.5,0.438l0.5,0.562L14.438,77l0.5,0.438L15.875,78
	l1.062,0.562l0.938,0.375l1.125,0.5L19.375,80l0.5,0.562l0.625,0.5l0.375,0.438l1,0.5l1,0.5L23.5,83l0.375,0.438l0.438,0.625
	l0.562,0.438l0.562,0.562l0.438,0.438l1.438,0.562l1.625,0.5l0.875,0.5l1.125,0.438L33,88l2.938,0.562L41.25,89l4.688-0.5l2.75-0.5
	l2.25-0.5l1-0.562l0.938-0.375l1.125-0.5l0.875-0.5l1-0.5l1.062-0.625L57.5,84l0.5-1.875l0.562-2.062l0.375-0.5l0.5-0.625l0.5-1.25
	L61,75.938l0.938-0.438L61.375,75l-0.5-0.938l2.812-1l2.375-0.625l-0.75-0.5L65,71.438L65.5,71l0.438,0.438l0.5,0.562L67,70.375
	l3.25-1.312l2.75-0.5L73.562,68L74,67.562l1.5-0.5l1.5-3l0.625-1L79,57.688L80,56L85,53.25z"/>
<polygon fill="#333399" points="81.583,52.583 82,47.667 82.417,44.083 83,43.583 82.583,42.917 81.917,39.917 81.5,35.917 
	81.083,35.417 81.583,35 81.917,34.5 81.5,33.833 81,30 79.5,28.917 79.083,28 78.583,26.833 78,26 77.5,24.917 77,23.833 
	76.5,22.917 76,22.333 75.5,21.833 75,21.417 74.583,20.833 74,20 74.167,17.75 78.75,20.75 86.167,35.25 86.167,47.75 
	83.667,52.583 "/>
<path fill="#333366" d="M4.68,68.691c1.251,2.615,2.74,5.093,4.424,7.42L4.68,68.691z"/>
<path fill="#333366" d="M48,0c-4.21,0-8.292,0.547-12.184,1.565l0.008,0.012l1.238,0.297l1.875-0.438l5.438-0.562L50,1.375
	l3.75,0.562l2.312,0.438l1.625,0.562L59,3.5l2,0.75l2,1.062l1,1.062l2,1.5l0.5,1L67,9.438l0.438,0.438L68,10.25l0.562,0.688
	l0.5,0.438l0.438,0.5l0.438,0.375l0.562,0.625l0.5,1.438l0.562,1.562l0.375,0.438l0.625,0.562L73,17.312l0.375,0.5L74,18.375
	l0.5,0.562l0.438,1L75.5,21l0.438,0.375l0.5,0.562l0.625,0.938l0.375,1.062l0.562,1L78.5,26l0.562,0.5l0.5,0.438L80,28.25
	l0.625,1.688l0.25,1.688l0.688,1.312L82,36.312l1.125,3.625l0.938,0.875l-0.438,1.125L83,43v1.062L83.5,46l0.438,0.5L83.625,47
	L83,49.188l-1,2.688l-1,2.188L80.438,56l-0.5,1.438L79.562,59l-0.625,0.562l-0.5,0.375L77.938,63l-1,1.938l-1,1.688L75,68
	l-1.125,1.688L71.5,71l-2.625,1.5l-2,1.5l-2,0.562L64.5,75l-0.562,1.688l-1.5,1.375L61,78.5l0.438,0.375L62,79.438l-0.5,0.438
	l-0.5,0.5l-0.5,0.562L60,82l0.438,0.875l0.5,0.625l-0.5,0.438l-0.5-0.5l-0.5-0.625L59,84.5l-0.5,1.438L58,86.562l-0.5,0.375
	l-0.562,0.5l-1,0.5l-1,0.562l-1,0.5L53,89.5L51.562,90L50,90.375l-4.25,0.562L41.938,91.5L41.5,91.938L41,91.375l-0.5-0.438
	L40,91.312L37.625,92l-2.688-0.5L32.5,90.938L29.938,91.5l-2-1l-2-0.938l-2.062-1l-1.938-1l-3-2.25L18,85l-0.562-0.062
	c0,0,0.05-0.219,0.141-0.619l-0.538,0.351C25.399,91.733,36.199,96,48,96c26.509,0,48-21.491,48-48S74.509,0,48,0z"/>
<path fill="#003366" d="M76.538,9.407L76,11.25l0.667,0.5l0.417,0.667l0.583,0.5l2,0.333l0.25,3.417l1.25,1.167L82,20.167l0.5,1.75
	l0.583,0.5L83.5,23l0.5,0.333l0.667,0.583l0.25,0.583L84.5,25l-0.333,0.417l0.167,0.5l0.667,0.5L85.583,27L86,28.667l0.5,1.167
	l0.5,1l0.667,1.25L88,33.417l0.667,1.5L89,36l-0.417,1l-0.667,4.167l0.5,4.75l0.5,0.5L88.5,46.833l-0.583,4.417L87.333,56L87,56.833
	l-0.25,1.083L86.083,59.5l-0.417,1.417L85.083,62l0.583,0.917l0.417,0.5L85.5,63.833l-0.583,0.75L84.583,65l-0.75,0.75L83.5,66.917
	L83,68.083L82.5,69l-0.333,0.417l0.917,0.5L83.75,70.5l-2.167,1.333L81,72.5l-1.917,4.417L76.5,77L76,77.5l-0.25,1.333l3.25,4.5
	l1.89-0.39C90.187,74.189,96,61.777,96,48C96,32.18,88.344,18.151,76.538,9.407z"/>
<path fill="#333333" d="M23.856,89.48l-0.606-0.667l-1.188-0.438l-0.625-0.438l-0.312-0.375l-0.812-0.688l-0.438-0.5L19.438,86
	l-2.5-1.625l-0.562-0.438l-0.376-0.171C18.41,85.925,21.043,87.839,23.856,89.48z"/>
<path fill="#333333" d="M87.3,75.543L87,74.938L79.562,74L79,74.938l-0.562,1l-0.5,0.562l-2.375,2.375L75,79.438l-2.438,0.438
	l-0.5,1.25L70.5,82.938l-1.5,0.5l-0.438,0.438l-0.5,0.5l-0.5,0.562l-0.5,0.625l-0.25,1.125l-1.125,0.188l-0.625,0.562l-0.75,1.062
	L62.75,89l-0.625,0.375l-0.5,0.562L61,90.5l-1.25,0.438L58.062,91.5L55.875,92l-1.812,0.375L42.75,93l-9.812-0.5L30.75,92
	l-1.812-0.5l-1.562-0.438L26,90.5l-0.875-0.75L23.9,89.505C30.985,93.627,39.213,96,48,96C64.257,96,78.617,87.91,87.3,75.543z"/>
<path fill="#003333" d="M55.198,0.539l3.865,1.274l3.562,1.062l3.125,1l2.562,1l0.625,0.375L70,5.875l1,0.438l0.625,0.562
	l0.438,0.375l1.062,0.625l0.938,0.562l0.5,0.5l0.5,0.562l0.5,0.438L76,10.312l0.438,0.375L77,11.375l0.688,0.562l0.25,0.438
	l0.625,0.438l0.375,0.438l0.562,0.625L79.938,15l0.688,1L81,16.438L81.5,17l0.562,1.062l0.438,0.875l0.438,0.5l0.562,0.5l0.5,0.75
	l0.438,1.188l0.5,0.875l0.562,1.188l0.375,0.938l0.625,1l0.5,0.938l0.5,1.125l0.5,2.438l1,3.125l0.5,2.438L90,44.75L89.438,53
	l-0.375,2.562L88.438,57L88,58.812l-0.375,2.062l-0.688,0.562L86.5,62l-0.625,1.875l-0.312,2l-0.625,1.312L84.438,68l-0.5,1.062
	l-0.5,0.875l-0.5,0.562L82.5,71L82,71.938L81.562,73L81,73.5l-0.562,0.438l-0.5,1.188L79.375,76l-0.312,0.5L78,76.938l-1,0.625
	l-0.5,0.312L76,78.938L74.375,80l-1.438,0.5l-0.5,0.5l-0.375,0.875l-0.5,1.062L71,83.5L70.438,84l-0.5,0.5l-1.188,0.438l-0.812,0.5
	L67.5,86L67,86.5l-0.562,0.438L66,87.5l-1,0.438l-1,0.625l-0.5,0.375l-0.562,0.438l-0.625,0.5l-0.25,0.5l-1.5,0.562L59,91.5
	l-1.25,0.438l-1.75,0.5L54.875,93l-1.938,0.562L49.125,94L42,95l-5.883-0.485C39.917,95.483,43.898,96,48,96
	c26.509,0,48-21.491,48-48C96,23.938,78.292,4.012,55.198,0.539z"/>
<path fill="#000033" d="M74.797,8.172l0.141,0.141l0.688,0.625l0.438,0.5l0.5,0.438l0.5,0.438l0.875,0.562l1.5,1L80,12.812
	l0.5,1.062l0.5,0.438l0.625,0.625L82,15.25l0.562,0.625l0.438,0.5L83.562,17l0.375,0.688l0.625,1.25L85,19.75l0.562,1.188
	l0.375,0.938L86.562,23L87,24.375l0.5,1.562l0.5,0.938l0.562,1l0.375,1.938l0.562,2.125l0.5,2.438l0.5,2.562l0.5,7.375l-0.5,7.625
	L90,54.062l-0.5,2.875l-0.438,2.75L88.438,62L88,63.5l-0.5,1.375l-0.375,1.5l-0.562,1.562L86,68.375l-0.438,0.562L85,70.125
	l-0.375,1.75L84,72.438l-0.562,0.5L83,74.375l-0.938,1.562l-1.062,1l-0.312,1L80,78.375l-0.438,0.5L79,79.5L78.562,80l-0.5,0.25
	L77.5,80.875l-0.438,0.562L76.5,81.875l-0.5,0.5l-0.562,0.5l-0.5,0.562l-0.5,0.5l-0.5,0.562l-0.5,0.438L73,85.5L71.938,86L71,86.5
	l-0.438,0.438L70,87.625L69.5,88L69,88.375l-0.5,0.5L67.938,89.5L67.125,90l-1.062,0.5l-1,0.5L64,91.5l-0.812,0.438l-1.25,0.5L61,93
	l-1,0.5l-1.812,0.438L56,94.438l-2.438,0.5l-0.625,0.625l-0.524,0.227C76.853,93.561,96,73.021,96,48
	C96,31.415,87.587,16.794,74.797,8.172z"/>
<path fill="#000033" d="M72.362,6.646l0.201,0.229l0.462,0.161C72.806,6.902,72.583,6.776,72.362,6.646z"/>
<path fill="#000033" d="M70.625,5.875l0.943,0.314c-0.489-0.276-0.983-0.543-1.482-0.803l-0.023,0.051L70.625,5.875z"/>
<polygon fill="#6699FF" points="56.469,41.969 58.031,41.531 57.406,40.969 57.031,40.406 56.656,39.906 56.031,38.969 
	55.531,37.969 55.031,36.906 54.531,35.906 54.031,34.969 53.531,33.969 53.031,33.469 52.594,32.969 51.969,32.406 50.469,31.969 
	49.031,31.531 46.656,30.969 44.969,30.469 44.469,30.031 43.969,29.531 42.969,28.906 42.031,28.469 41.406,27.969 40.906,27.344 
	40.531,26.969 40.031,27.531 39.469,27.844 38.969,27.594 37.594,26.969 36.031,27.844 37.281,29.031 37.844,29.594 37.031,29.969 
	35.969,29.469 35.531,29.031 35.094,29.469 34.531,30.031 34.031,29.469 32.719,29.031 31.094,29.406 30.531,29.969 29.969,30.531 
	29.531,30.969 28.906,31.594 28.594,31.969 28.031,31.594 27.531,31.031 27.031,31.531 26.156,31.969 25.031,32.531 24.594,32.844 
	24.031,33.469 23.031,34.031 22.031,35.906 23.531,37.969 24.969,37.406 25.469,36.969 26.031,37.531 26.531,38.031 27.031,38.969 
	27.531,39.969 27.969,40.531 28.531,40.969 28.969,42.031 29.531,42.969 29.969,43.531 28.969,43.906 28.031,44.469 28.969,44.969 
	29.969,45.406 30.594,45.969 31.031,45.031 32.031,44.031 32.969,44.906 35.281,45.969 37.094,44.969 38.094,43.906 38.969,44.469 
	42.156,45.094 45.969,44.594 45.094,43.906 43.969,43.406 45.344,42.906 47.156,42.406 47.969,41.969 49.156,41.406 49.531,40.906 
	50.094,41.469 50.469,41.906 51.156,41.469 52.156,40.844 52.969,41.531 "/>
<polygon fill="#FFFF66" stroke="#FFFF66" stroke-width="0" stroke-linejoin="round" points="59.031,63.469 58.531,62.969 
	57.969,62.344 57.469,61.969 56.969,61.406 56.469,60.969 55.969,61.344 55.531,61.969 54.969,62.531 53.531,62.906 52.031,62.469 
	49.344,61.969 46.969,62.531 46.531,62.906 46.031,62.406 45.094,61.906 43.969,62.594 38.031,62.969 30.969,63.594 28.219,63.969 
	24.906,64.531 21.719,64.969 18.969,65.531 17.969,65.969 17.031,65.469 15.156,64.969 12.969,63.906 12.406,62.969 11.969,62.031 
	11.469,60.906 10.969,59.531 10.469,57.969 10.031,56.469 9.469,54.906 8.969,54.469 8.531,53.969 7.969,52.969 7.469,51.906 
	7.031,51.406 7.469,50.906 7.969,51.344 8.594,51.906 8.969,51.406 8.531,50.969 8.031,50.406 9.344,49.906 10.969,49.406 
	11.906,48.906 13.031,47.969 14.406,46.844 16.031,46.469 16.406,45.844 17.031,44.906 18.219,43.906 19.969,43.406 20.781,42.844 
	21.969,41.844 20.594,40.969 18.969,40.469 18.531,39.969 18.031,40.406 17.531,40.844 17.031,40.406 12.406,39.969 8.031,40.406 
	7.469,40.906 7.031,39.906 7.406,38.906 7.969,38.031 8.531,36.969 9.031,34.969 9.406,32.906 10.031,31.031 10.469,28.969 
	10.969,27.969 11.469,26.906 11.969,26.469 12.656,25.906 12.969,25.406 14.094,24.906 14.969,24.094 15.594,22.906 15.969,22.531 
	16.469,21.906 16.969,21.469 17.531,20.906 17.969,20.406 18.469,19.906 18.969,19.531 19.469,18.906 20.031,18.531 20.469,17.906 
	20.969,17.469 21.906,16.969 22.969,16.406 24.344,15.906 26.031,15.469 26.906,15.031 27.969,14.531 26.594,14.031 25.031,13.469 
	24.094,12.969 22.969,14.031 22.594,14.969 21.969,15.531 20.094,15.969 17.969,16.406 17.469,16.906 16.969,15.844 18.281,14.906 
	19.969,13.594 21.219,11.906 21.969,11.469 22.594,10.906 23.031,10.344 23.469,9.969 23.906,10.344 25.156,10.844 25.906,10.469 
	26.594,9.906 27.031,9.344 27.469,8.906 27.969,7.906 26.844,6.906 24.906,7.406 23.906,7.906 22.844,8.469 22.031,8.844 
	20.969,9.469 20.156,9.906 19.031,10.406 19.469,10.906 20.031,11.281 19.094,11.844 17.969,12.469 17.531,12.906 16.969,13.781 
	16.469,14.906 16.094,14.344 15.531,13.969 15.031,14.844 14.531,15.969 14.031,16.469 13.594,16.906 12.969,17.469 13.531,17.969 
	14.031,17.469 14.906,16.906 15.969,17.969 15.656,18.844 14.969,19.469 12.969,19.906 10.969,20.469 11.594,20.906 12.031,21.344 
	11.656,21.844 11.094,22.406 10.594,22.906 10.031,23.594 9.531,23.906 9.031,25.594 8.531,26.844 7.969,27.469 7.469,27.906 
	6.969,28.469 6.469,28.906 5.969,29.906 5.469,30.781 5.031,31.531 4.531,31.906 3.969,32.469 4.531,32.906 4.969,33.406 
	4.594,33.969 3.969,34.906 3.531,35.844 2.969,40.844 2.469,43.969 1.969,46.781 2.469,49.969 2.969,50.469 3.469,50.969 
	3.969,51.406 3.469,51.906 2.969,52.469 3.469,52.906 4.031,55.719 4.531,57.906 4.969,58.406 5.531,58.906 5.969,60.844 
	5.469,62.906 5.031,63.406 5.844,63.906 7.031,65.031 7.594,65.969 8.031,66.469 7.531,66.969 7.031,67.969 7.844,68.906 
	9.031,69.469 9.531,69.969 9.969,70.406 12.031,70.906 14.031,70.406 17.844,69.906 21.969,70.906 21.594,71.906 20.969,72.469 
	20.406,72.906 20.031,72.344 19.406,71.969 18.969,72.406 18.594,72.969 17.969,73.469 19.469,73.969 21.031,73.469 21.594,72.969 
	21.969,73.781 23.031,74.906 23.906,74.031 24.469,72.906 25.031,72.281 25.906,71.906 27.031,72.344 26.156,72.906 24.969,73.531 
	25.969,73.906 26.969,73.469 30.906,72.969 36.031,72.406 36.781,71.969 38.031,71.469 37.656,70.906 36.969,70.406 37.531,69.844 
	37.969,70.406 39.969,70.969 42.094,71.406 42.656,71.906 43.031,70.531 42.094,68.906 40.906,69.406 40.469,69.906 39.969,69.344 
	40.469,68.906 40.969,66.969 42.906,64.906 45.094,64.406 46.406,63.906 48.031,64.344 48.969,64.844 49.969,65.406 51.781,65.906 
	54.031,65.594 53.594,64.969 53.031,64.469 55.406,63.906 "/>
<polygon fill="#FFFF66" stroke="#FFFF66" stroke-width="0" stroke-linejoin="round" points="28.969,6.469 29.406,5.969 
	29.969,6.406 29.469,6.906 "/>
<polygon fill="#FFFF66" stroke="#FFFF66" stroke-width="0" stroke-linejoin="round" points="27.906,11.406 27.469,10.969 
	27.031,11.344 27.344,11.969 "/>
<polygon fill="#FFFF66" stroke="#FFFF66" stroke-width="0" stroke-linejoin="round" points="28.969,13.094 29.406,11.906 
	30.031,11.406 30.969,11.031 32.031,11.406 32.469,11.906 32.969,11.531 33.469,10.969 33.969,10.344 34.406,9.906 34.969,11.469 
	32.531,12.969 29.969,13.406 29.469,13.906 "/>
<polygon fill="#FFFF66" stroke="#FFFF66" stroke-width="0" stroke-linejoin="round" points="36.031,12.469 36.781,11.969 
	37.969,12.281 37.094,12.906 "/>
<polygon fill="#FFFF66" stroke="#FFFF66" stroke-width="0" stroke-linejoin="round" points="33.969,7.844 35.594,7.031 
	37.031,7.406 36.156,7.969 35.031,8.406 34.469,8.906 "/>
<polygon fill="#FFFF66" stroke="#FFFF66" stroke-width="0" stroke-linejoin="round" points="17.031,71.469 17.406,70.969 
	18.031,71.406 17.531,72.031 "/>
<polygon fill="#FFFF66" stroke="#FFFF66" stroke-width="0" stroke-linejoin="round" points="11.906,72.406 11.469,71.906 
	10.906,72.406 11.406,72.969 "/>
<polygon fill="#FFFF66" stroke="#FFFF66" stroke-width="0" stroke-linejoin="round" points="62.969,55.406 63.406,54.969 
	64.031,55.344 63.531,55.844 "/>
<polygon fill="#FFFF66" stroke="#FFFF66" stroke-width="0" stroke-linejoin="round" points="65.906,52.406 66.469,51.906 
	66.969,52.344 66.594,52.969 "/>
<polygon fill="#FFFF66" stroke="#FFFF66" stroke-width="0" stroke-linejoin="round" points="25.031,75.406 25.531,74.969 
	26.031,75.469 25.531,75.969 "/>
<polygon fill="#FFFF66" stroke="#FFFF66" stroke-width="0" stroke-linejoin="round" points="33.969,82.406 34.469,81.969 
	34.969,81.469 35.969,80.906 36.969,80.469 38.219,79.969 38.969,81.094 37.719,81.906 34.969,82.344 34.594,82.969 "/>
<polygon fill="#FFFF66" stroke="#FFFF66" stroke-width="0" stroke-linejoin="round" points="39.969,81.281 40.469,80.969 
	41.031,81.344 40.531,81.844 "/>
<polygon fill="#6699CC" stroke="#6699CC" stroke-width="0" stroke-linejoin="round" points="4.031,48.031 5.531,46.906 
	7.031,47.469 6.031,47.969 4.969,48.531 4.594,48.969 "/>
<polygon fill="#336699" points="10.094,44.469 10.469,43.844 10.969,44.406 10.594,44.906 "/>
<polygon fill="#336699" points="25.031,67.406 25.469,66.844 25.969,67.531 25.531,67.906 "/>
<polygon fill="#336699" points="28.094,67.531 28.969,66.969 30.031,67.531 29.031,67.844 "/>
<polygon fill="#336699" points="33.094,66.469 33.531,65.781 33.969,66.531 33.594,66.781 "/>
<polygon fill="#336699" points="36.031,68.031 36.969,66.906 37.969,67.969 37.094,68.906 "/>
<polygon fill="#336699" points="38.031,65.531 38.969,64.844 39.969,65.219 39.219,65.906 "/>
<polygon fill="#99CCFF" points="15.969,49.031 13.031,49.969 15.469,51.031 18.969,50.469 19.531,49.969 20.031,49.469 
	20.469,48.969 20.969,48.531 20.219,47.969 18.969,48.469 "/>
<polygon fill="#99CCFF" points="25.969,46.531 27.031,45.906 28.969,46.531 27.281,46.969 "/>
<polygon fill="#99CCFF" points="24.969,38.531 28.281,37.969 32.031,38.469 28.844,38.906 "/>
<polygon fill="#6699CC" points="35.031,37.969 33.906,38.406 35.031,38.969 35.969,38.469 "/>
<polygon fill="#6699FF" points="27.656,46.281 28.719,45.969 29.281,46.469 28.906,46.969 "/>
</svg>
